<svg xmlns="http://www.w3.org/2000/svg" version="1.0" width="1600.000000pt" height="1600.000000pt" viewBox="0 0 1600.000000 1600.000000" preserveAspectRatio="xMidYMid meet">
<metadata>
Created by potrace 1.15, written by Peter Selinger 2001-2017
</metadata>
<g transform="translate(0.000000,1600.000000) scale(0.100000,-0.100000)" fill="#000000" stroke="none">
<path d="M10209 12968 l-1795 -2573 -479 -321 -480 -321 -1907 -687 c-1050 -378 -1964 -702 -2032 -721 -243 -67 -552 -204 -731 -326 -23 -15 -109 -57 -192 -94 -440 -194 -850 -477 -1167 -806 -423 -439 -668 -960 -736 -1569 -16 -142 -14 -473 5 -635 38 -336 132 -684 279 -1039 l37 -90 -85 -126 c-47 -69 -118 -166 -157 -215 -40 -50 -85 -108 -101 -129 l-28 -39 0 -797 c0 -876 0 -885 61 -1056 56 -160 119 -264 228 -377 140 -146 320 -237 536 -272 72 -12 217 -15 743 -15 l652 0 0 188 c0 657 -194 1125 -543 1307 -31 17 -57 34 -57 39 0 16 109 156 213 273 176 200 422 425 817 748 512 419 889 778 1195 1135 54 63 99 116 99 117 1 1 93 -7 206 -17 607 -57 1538 -134 2285 -190 349 -26 1147 -80 1182 -80 10 0 13 -282 15 -1308 l3 -1307 27 -85 c90 -285 245 -507 453 -646 96 -63 195 -107 324 -142 l96 -27 938 -3 c515 -1 937 1 937 5 0 44 -63 458 -80 523 -70 273 -216 550 -385 728 -106 113 -188 173 -317 235 l-107 52 -1 1161 0 1162 25 16 c15 10 63 50 108 90 45 40 174 148 287 241 571 469 871 778 1125 1160 220 329 346 616 429 976 98 427 288 1430 417 2204 62 372 139 894 139 939 l0 25 848 3 c942 4 927 3 1142 74 277 92 454 254 532 489 23 69 23 76 23 504 l0 434 -540 213 c-297 118 -691 273 -876 345 l-336 132 -17 121 c-29 209 -99 381 -203 504 -136 159 -388 279 -753 357 -69 15 -130 28 -136 30 -5 2 -16 41 -23 86 -42 273 -329 1926 -339 1952 -6 14 -432 -591 -1803 -2555z m-8544 -6664 c-9 -60 -20 -233 -25 -384 -13 -381 -49 -650 -130 -960 -37 -141 -102 -340 -110 -340 -4 0 -19 55 -34 123 -115 531 -76 965 123 1372 56 113 178 311 187 302 2 -2 -3 -53 -11 -113z"/>
<path d="M4735 3799 c-148 -162 -427 -435 -623 -610 -139 -125 -206 -182 -603 -510 -90 -76 -199 -169 -241 -209 l-78 -72 0 -78 c0 -71 3 -86 34 -142 140 -256 239 -644 262 -1029 l7 -109 43 -40 c101 -93 251 -171 406 -212 81 -21 101 -22 771 -25 l687 -4 0 204 c0 325 -32 555 -105 767 -95 272 -222 428 -435 535 -30 15 -56 29 -58 30 -5 5 123 209 226 360 192 282 430 591 706 918 208 246 209 247 205 251 -2 2 -236 24 -519 50 -283 26 -526 49 -540 51 -22 5 -41 -12 -145 -126z"/>
</g>
</svg>